<svg xmlns="http://www.w3.org/2000/svg" width="1600" height="980" viewBox="0 0 1600 980">
<defs>
  <marker id="arrowBlue" markerWidth="10" markerHeight="10" refX="8" refY="3" orient="auto" markerUnits="strokeWidth"><path d="M0,0 L0,6 L9,3 z" fill="#5b7fcb"/></marker>
  <marker id="arrowGray" markerWidth="10" markerHeight="10" refX="8" refY="3" orient="auto" markerUnits="strokeWidth"><path d="M0,0 L0,6 L9,3 z" fill="#5f6673"/></marker>
  <pattern id="grid" width="42" height="42" patternUnits="userSpaceOnUse"><path d="M42 0H0V42" fill="none" stroke="#f2f4f7" stroke-width="1"/></pattern>
</defs>
<rect width="1600" height="980" fill="#ffffff"/>
<rect width="1600" height="980" fill="url(#grid)" opacity="0.55"/>
<style>text{font-family:-apple-system,BlinkMacSystemFont,'Segoe UI','PingFang SC','Microsoft YaHei',Arial,sans-serif;}</style>

<text x="70" y="76" font-size="30" font-weight="800" fill="#1f2933">Arm CCA 架构（Armv9-A RME）</text>
<text x="70" y="112" font-size="17" fill="#8a96a8">Four-world model · RMM/RSI/RMI · GPT granule ownership · Realm VM attestation</text>
<rect x="1220" y="56" width="310" height="78" rx="10" fill="#ffffff" stroke="#d7dde7"/>
<text x="1240" y="84" font-size="15" fill="#7c8798" font-weight="700">图例</text>
<line x1="1240" y1="106" x2="1285" y2="106" stroke="#5b7fcb" stroke-width="4" marker-end="url(#arrowBlue)"/>
<text x="1298" y="111" font-size="14" fill="#4b5563">可信接口 / 证明 / 密钥释放</text>
<line x1="1240" y1="128" x2="1285" y2="128" stroke="#5f6673" stroke-width="3" stroke-dasharray="7 7" marker-end="url(#arrowGray)"/>
<text x="1298" y="133" font-size="14" fill="#4b5563">不可信 I/O / 管理 / 元数据</text>
<text x="150" y="165" font-size="16" fill="#8a96a8" font-weight="700">层次 / 信任域</text>
<line x1="230" y1="188" x2="1540" y2="188" stroke="#e8edf3"/>
<text x="70" y="260" text-anchor="start" font-size="19" font-weight="800" fill="#2f3742"><tspan x="70" dy="0">EL0</tspan></text>
<text x="70" y="288" text-anchor="start" font-size="14" font-weight="500" fill="#98a2b3"><tspan x="70" dy="0">应用</tspan></text>
<line x1="230" y1="343" x2="1540" y2="343" stroke="#e8edf3"/>
<text x="70" y="415" text-anchor="start" font-size="19" font-weight="800" fill="#2f3742"><tspan x="70" dy="0">EL1</tspan></text>
<text x="70" y="443" text-anchor="start" font-size="14" font-weight="500" fill="#98a2b3"><tspan x="70" dy="0">OS Kernel</tspan></text>
<line x1="230" y1="498" x2="1540" y2="498" stroke="#e8edf3"/>
<text x="70" y="570" text-anchor="start" font-size="19" font-weight="800" fill="#2f3742"><tspan x="70" dy="0">EL2</tspan></text>
<text x="70" y="598" text-anchor="start" font-size="14" font-weight="500" fill="#98a2b3"><tspan x="70" dy="0">Hypervisor / RMM</tspan></text>
<line x1="230" y1="653" x2="1540" y2="653" stroke="#e8edf3"/>
<text x="70" y="725" text-anchor="start" font-size="19" font-weight="800" fill="#2f3742"><tspan x="70" dy="0">EL3</tspan></text>
<text x="70" y="753" text-anchor="start" font-size="14" font-weight="500" fill="#98a2b3"><tspan x="70" dy="0">Monitor</tspan></text>
<text x="393.75" y="199" text-anchor="middle" font-size="19" font-weight="800" fill="#2f3742">Normal World</text>
<text x="721.25" y="199" text-anchor="middle" font-size="19" font-weight="800" fill="#2f3742">Secure World</text>
<line x1="557.5" y1="213" x2="557.5" y2="790" stroke="#dfe6ef" stroke-width="1" stroke-dasharray="7 7"/>
<text x="1048.75" y="199" text-anchor="middle" font-size="19" font-weight="800" fill="#5b7fcb">Realm World</text>
<line x1="885.0" y1="213" x2="885.0" y2="790" stroke="#dfe6ef" stroke-width="1" stroke-dasharray="7 7"/>
<text x="1376.25" y="199" text-anchor="middle" font-size="19" font-weight="800" fill="#2f3742">Root World</text>
<line x1="1212.5" y1="213" x2="1212.5" y2="790" stroke="#dfe6ef" stroke-width="1" stroke-dasharray="7 7"/>
<rect x="256.0" y="218" width="275.5" height="93" rx="10" fill="#dcf8e5" stroke="#93b99d" stroke-width="2"/><text x="270.0" y="242" font-size="14" fill="#8a96a8" font-weight="600">[APP]</text><text x="393.75" y="250.5" text-anchor="middle" font-size="21" font-weight="700" fill="#1f2933"><tspan x="393.75" dy="0">Apps</tspan></text><text x="393.75" y="286.5" text-anchor="middle" font-size="15" font-weight="500" fill="#6b7280"><tspan x="393.75" dy="0">普通应用程序</tspan></text>
<rect x="256.0" y="373" width="275.5" height="93" rx="10" fill="#eaf2ff" stroke="#8aa7d8" stroke-width="2"/><text x="270.0" y="397" font-size="14" fill="#8a96a8" font-weight="600">[OS]</text><text x="393.75" y="405.5" text-anchor="middle" font-size="21" font-weight="700" fill="#1f2933"><tspan x="393.75" dy="0">Rich OS Kernel</tspan></text><text x="393.75" y="441.5" text-anchor="middle" font-size="15" font-weight="500" fill="#6b7280"><tspan x="393.75" dy="0">Linux / Android</tspan></text>
<rect x="256.0" y="528" width="275.5" height="93" rx="10" fill="#eaf2ff" stroke="#8aa7d8" stroke-width="2"/><text x="270.0" y="552" font-size="14" fill="#8a96a8" font-weight="600">[HYP]</text><text x="393.75" y="560.5" text-anchor="middle" font-size="21" font-weight="700" fill="#1f2933"><tspan x="393.75" dy="0">Hypervisor</tspan></text><text x="393.75" y="596.5" text-anchor="middle" font-size="15" font-weight="500" fill="#6b7280"><tspan x="393.75" dy="0">KVM / VMM·不可信资源管理</tspan></text>
<rect x="583.5" y="218" width="275.5" height="93" rx="10" fill="#dcf8e5" stroke="#93b99d" stroke-width="2"/><text x="597.5" y="242" font-size="14" fill="#8a96a8" font-weight="600">[APP]</text><text x="721.25" y="250.5" text-anchor="middle" font-size="21" font-weight="700" fill="#1f2933"><tspan x="721.25" dy="0">Trusted Apps</tspan></text><text x="721.25" y="286.5" text-anchor="middle" font-size="15" font-weight="500" fill="#6b7280"><tspan x="721.25" dy="0">传统 TrustZone TA</tspan></text>
<rect x="583.5" y="373" width="275.5" height="93" rx="10" fill="#eaf2ff" stroke="#8aa7d8" stroke-width="2"/><text x="597.5" y="397" font-size="14" fill="#8a96a8" font-weight="600">[OS]</text><text x="721.25" y="405.5" text-anchor="middle" font-size="21" font-weight="700" fill="#1f2933"><tspan x="721.25" dy="0">Trusted OS</tspan></text><text x="721.25" y="441.5" text-anchor="middle" font-size="15" font-weight="500" fill="#6b7280"><tspan x="721.25" dy="0">OP-TEE /安全内核</tspan></text>
<rect x="583.5" y="528" width="275.5" height="93" rx="10" fill="#eaf2ff" stroke="#8aa7d8" stroke-width="2"/><text x="597.5" y="552" font-size="14" fill="#8a96a8" font-weight="600">[HYP]</text><text x="721.25" y="560.5" text-anchor="middle" font-size="21" font-weight="700" fill="#1f2933"><tspan x="721.25" dy="0">SPM</tspan></text><text x="721.25" y="596.5" text-anchor="middle" font-size="15" font-weight="500" fill="#6b7280"><tspan x="721.25" dy="0">Secure Partition Manager</tspan></text>
<rect x="911.0" y="218" width="275.5" height="228" rx="10" fill="#ffffff" stroke="#5b7fcb" stroke-width="2"/><text x="925.0" y="242" font-size="14" fill="#8a96a8" font-weight="600">[VM]</text><text x="1048.75" y="318.0" text-anchor="middle" font-size="21" font-weight="700" fill="#5b7fcb"><tspan x="1048.75" dy="0">Realm VM</tspan></text><text x="1048.75" y="354.0" text-anchor="middle" font-size="15" font-weight="500" fill="#6b7280"><tspan x="1048.75" dy="0">Realm Guest OS</tspan><tspan x="1048.75" dy="19">内存加密·远程证明</tspan><tspan x="1048.75" dy="19">EL0 : Realm Apps</tspan></text>
<rect x="911.0" y="528" width="275.5" height="93" rx="10" fill="#5b7fcb" stroke="#5b7fcb" stroke-width="2"/><text x="925.0" y="552" font-size="14" fill="#8a96a8" font-weight="600">[HYP]</text><text x="1048.75" y="560.5" text-anchor="middle" font-size="21" font-weight="700" fill="#ffffff"><tspan x="1048.75" dy="0">RMM</tspan></text><text x="1048.75" y="596.5" text-anchor="middle" font-size="15" font-weight="500" fill="#6b7280"><tspan x="1048.75" dy="0">Realm Management Monitor</tspan><tspan x="1048.75" dy="19">参考实现 : TF-RMM</tspan></text>
<rect x="1238.5" y="683" width="275.5" height="93" rx="10" fill="#fff3ce" stroke="#c8a858" stroke-width="2"/><text x="1252.5" y="707" font-size="14" fill="#8a96a8" font-weight="600">[FW]</text><text x="1376.25" y="715.5" text-anchor="middle" font-size="21" font-weight="700" fill="#1f2933"><tspan x="1376.25" dy="0">Monitor ( EL3</tspan><tspan x="1376.25" dy="24">Firmware )</tspan></text><text x="1376.25" y="751.5" text-anchor="middle" font-size="15" font-weight="500" fill="#6b7280"><tspan x="1376.25" dy="0">TF-A·安全启动·世界切换</tspan></text>
<line x1="531.5" y1="574.5" x2="911.0" y2="574.5" stroke="#5b7fcb" stroke-width="3" marker-end="url(#arrowBlue)"/><rect x="676.25" y="556.5" width="90" height="28" rx="7" fill="white" stroke="#5b7fcb" stroke-width="1.5"/><text x="721.25" y="575.5" text-anchor="middle" font-size="14" fill="#5b7fcb" font-weight="700">RMI</text>
<line x1="1048.75" y1="446" x2="1048.75" y2="528" stroke="#5b7fcb" stroke-width="3" marker-end="url(#arrowBlue)"/><rect x="1003.75" y="469.0" width="90" height="28" rx="7" fill="white" stroke="#5b7fcb" stroke-width="1.5"/><text x="1048.75" y="488.0" text-anchor="middle" font-size="14" fill="#5b7fcb" font-weight="700">RSI</text>
<line x1="1186.5" y1="574.5" x2="1238.5" y2="729.5" stroke="#5f6673" stroke-width="3" stroke-dasharray="8 8" marker-end="url(#arrowGray)"/><rect x="1167.5" y="634.0" width="90" height="28" rx="7" fill="white" stroke="#5f6673" stroke-width="1.5"/><text x="1212.5" y="653.0" text-anchor="middle" font-size="14" fill="#5f6673" font-weight="700">SMC</text>
<rect x="70" y="815" width="1460" height="115" rx="9" fill="#f8fafc" stroke="#5f6673" stroke-width="2.5"/>
<text x="90" y="841" font-size="15" fill="#7c8798" font-weight="800">硬件强制层 · Armv9-A RME</text>
<rect x="90.0" y="858" width="460.0" height="58" rx="10" fill="#eee7ff" stroke="#a796d8" stroke-width="2"/><text x="104.0" y="882" font-size="14" fill="#8a96a8" font-weight="600">[HW]</text><text x="320.0" y="873.0" text-anchor="middle" font-size="21" font-weight="700" fill="#1f2933"><tspan x="320.0" dy="0">GPC + GPT</tspan></text><text x="320.0" y="909.0" text-anchor="middle" font-size="15" font-weight="500" fill="#6b7280"><tspan x="320.0" dy="0">Granule protection check / table</tspan></text>
<rect x="570.0" y="858" width="460.0" height="58" rx="10" fill="#eee7ff" stroke="#a796d8" stroke-width="2"/><text x="584.0" y="882" font-size="14" fill="#8a96a8" font-weight="600">[HW]</text><text x="800.0" y="873.0" text-anchor="middle" font-size="21" font-weight="700" fill="#1f2933"><tspan x="800.0" dy="0">Memory Protection Engine</tspan></text><text x="800.0" y="909.0" text-anchor="middle" font-size="15" font-weight="500" fill="#6b7280"><tspan x="800.0" dy="0">Realm PAS访问与加密</tspan></text>
<rect x="1050.0" y="858" width="460.0" height="58" rx="10" fill="#eee7ff" stroke="#a796d8" stroke-width="2"/><text x="1064.0" y="882" font-size="14" fill="#8a96a8" font-weight="600">[HW]</text><text x="1280.0" y="873.0" text-anchor="middle" font-size="21" font-weight="700" fill="#1f2933"><tspan x="1280.0" dy="0">Root of Trust</tspan></text><text x="1280.0" y="909.0" text-anchor="middle" font-size="15" font-weight="500" fill="#6b7280"><tspan x="1280.0" dy="0">平台证明·测量启动链</tspan></text>
<text x="70" y="956" font-size="14" fill="#5b7fcb" font-weight="800">TCB：</text>
<text x="115" y="956" font-size="14" fill="#7c8798">Monitor (TF-A) + RMM (TF-RMM) + RoT；Normal World Hypervisor 不在 TCB 内</text>
</svg>