<svg xmlns="http://www.w3.org/2000/svg" width="1600" height="980" viewBox="0 0 1600 980">
<defs>
  <marker id="arrowBlue" markerWidth="10" markerHeight="10" refX="8" refY="3" orient="auto" markerUnits="strokeWidth"><path d="M0,0 L0,6 L9,3 z" fill="#5b7fcb"/></marker>
  <marker id="arrowGray" markerWidth="10" markerHeight="10" refX="8" refY="3" orient="auto" markerUnits="strokeWidth"><path d="M0,0 L0,6 L9,3 z" fill="#5f6673"/></marker>
  <pattern id="grid" width="42" height="42" patternUnits="userSpaceOnUse"><path d="M42 0H0V42" fill="none" stroke="#f2f4f7" stroke-width="1"/></pattern>
</defs>
<rect width="1600" height="980" fill="#ffffff"/>
<rect width="1600" height="980" fill="url(#grid)" opacity="0.55"/>
<style>text{font-family:-apple-system,BlinkMacSystemFont,'Segoe UI','PingFang SC','Microsoft YaHei',Arial,sans-serif;}</style>

<text x="70" y="76" font-size="30" font-weight="800" fill="#1f2933">AWS Nitro Enclaves 架构</text>
<text x="70" y="112" font-size="17" fill="#8a96a8">Parent EC2 + isolated enclave VM · vsock-only I/O · Nitro attestation · KMS condition</text>
<rect x="1220" y="56" width="310" height="78" rx="10" fill="#ffffff" stroke="#d7dde7"/>
<text x="1240" y="84" font-size="15" fill="#7c8798" font-weight="700">图例</text>
<line x1="1240" y1="106" x2="1285" y2="106" stroke="#5b7fcb" stroke-width="4" marker-end="url(#arrowBlue)"/>
<text x="1298" y="111" font-size="14" fill="#4b5563">可信接口 / 证明 / 密钥释放</text>
<line x1="1240" y1="128" x2="1285" y2="128" stroke="#5f6673" stroke-width="3" stroke-dasharray="7 7" marker-end="url(#arrowGray)"/>
<text x="1298" y="133" font-size="14" fill="#4b5563">不可信 I/O / 管理 / 元数据</text>
<text x="150" y="165" font-size="16" fill="#8a96a8" font-weight="700">层次 / 信任域</text>
<line x1="230" y1="188" x2="1540" y2="188" stroke="#e8edf3"/>
<text x="70" y="260" text-anchor="start" font-size="19" font-weight="800" fill="#2f3742"><tspan x="70" dy="0">应用层</tspan></text>
<text x="70" y="288" text-anchor="start" font-size="14" font-weight="500" fill="#98a2b3"><tspan x="70" dy="0">App / Workload</tspan></text>
<line x1="230" y1="343" x2="1540" y2="343" stroke="#e8edf3"/>
<text x="70" y="415" text-anchor="start" font-size="19" font-weight="800" fill="#2f3742"><tspan x="70" dy="0">运行时 / OS</tspan></text>
<text x="70" y="443" text-anchor="start" font-size="14" font-weight="500" fill="#98a2b3"><tspan x="70" dy="0">Runtime / Guest OS</tspan></text>
<line x1="230" y1="498" x2="1540" y2="498" stroke="#e8edf3"/>
<text x="70" y="570" text-anchor="start" font-size="19" font-weight="800" fill="#2f3742"><tspan x="70" dy="0">管理 / 隔离层</tspan></text>
<text x="70" y="598" text-anchor="start" font-size="14" font-weight="500" fill="#98a2b3"><tspan x="70" dy="0">Manager / Monitor</tspan></text>
<line x1="230" y1="653" x2="1540" y2="653" stroke="#e8edf3"/>
<text x="70" y="725" text-anchor="start" font-size="19" font-weight="800" fill="#2f3742"><tspan x="70" dy="0">证明 / 控制面</tspan></text>
<text x="70" y="753" text-anchor="start" font-size="14" font-weight="500" fill="#98a2b3"><tspan x="70" dy="0">Attestation / Control</tspan></text>
<text x="393.75" y="199" text-anchor="middle" font-size="19" font-weight="800" fill="#2f3742">Parent EC2</text>
<text x="721.25" y="199" text-anchor="middle" font-size="19" font-weight="800" fill="#2f3742">Nitro Enclave</text>
<line x1="557.5" y1="213" x2="557.5" y2="790" stroke="#dfe6ef" stroke-width="1" stroke-dasharray="7 7"/>
<text x="1048.75" y="199" text-anchor="middle" font-size="19" font-weight="800" fill="#5b7fcb">AWS KMS</text>
<line x1="885.0" y1="213" x2="885.0" y2="790" stroke="#dfe6ef" stroke-width="1" stroke-dasharray="7 7"/>
<text x="1376.25" y="199" text-anchor="middle" font-size="19" font-weight="800" fill="#2f3742">Nitro System</text>
<line x1="1212.5" y1="213" x2="1212.5" y2="790" stroke="#dfe6ef" stroke-width="1" stroke-dasharray="7 7"/>
<rect x="256.0" y="218" width="275.5" height="93" rx="10" fill="#dcf8e5" stroke="#93b99d" stroke-width="2"/><text x="270.0" y="242" font-size="14" fill="#8a96a8" font-weight="600">[APP]</text><text x="393.75" y="250.5" text-anchor="middle" font-size="21" font-weight="700" fill="#1f2933"><tspan x="393.75" dy="0">Parent App / Proxy</tspan></text><text x="393.75" y="286.5" text-anchor="middle" font-size="15" font-weight="500" fill="#6b7280"><tspan x="393.75" dy="0">网络、存储、日志代理</tspan><tspan x="393.75" dy="19">不可信输入输出</tspan></text>
<rect x="256.0" y="373" width="275.5" height="93" rx="10" fill="#eaf2ff" stroke="#8aa7d8" stroke-width="2"/><text x="270.0" y="397" font-size="14" fill="#8a96a8" font-weight="600">[OS]</text><text x="393.75" y="405.5" text-anchor="middle" font-size="21" font-weight="700" fill="#1f2933"><tspan x="393.75" dy="0">Parent Kernel</tspan></text><text x="393.75" y="441.5" text-anchor="middle" font-size="15" font-weight="500" fill="#6b7280"><tspan x="393.75" dy="0">enclave lifecycle</tspan><tspan x="393.75" dy="19">vsock transport</tspan></text>
<rect x="583.5" y="218" width="275.5" height="228" rx="10" fill="#ffffff" stroke="#5b7fcb" stroke-width="2"/><text x="597.5" y="242" font-size="14" fill="#8a96a8" font-weight="600">[TEE]</text><text x="721.25" y="318.0" text-anchor="middle" font-size="21" font-weight="700" fill="#5b7fcb"><tspan x="721.25" dy="0">Nitro Enclave</tspan></text><text x="721.25" y="354.0" text-anchor="middle" font-size="15" font-weight="500" fill="#6b7280"><tspan x="721.25" dy="0">敏感服务</tspan><tspan x="721.25" dy="19">无外网·无磁盘·无 SSH</tspan><tspan x="721.25" dy="19">EIF measurement / PCR</tspan></text>
<rect x="911.0" y="683" width="275.5" height="93" rx="10" fill="#fff3ce" stroke="#c8a858" stroke-width="2"/><text x="925.0" y="707" font-size="14" fill="#8a96a8" font-weight="600">[KMS]</text><text x="1048.75" y="715.5" text-anchor="middle" font-size="21" font-weight="700" fill="#1f2933"><tspan x="1048.75" dy="0">AWS KMS</tspan></text><text x="1048.75" y="751.5" text-anchor="middle" font-size="15" font-weight="500" fill="#6b7280"><tspan x="1048.75" dy="0">验证 attestation</tspan><tspan x="1048.75" dy="19">document</tspan><tspan x="1048.75" dy="19">按 PCR释放数据密钥</tspan></text>
<rect x="1238.5" y="528" width="275.5" height="93" rx="10" fill="#5b7fcb" stroke="#5b7fcb" stroke-width="2"/><text x="1252.5" y="552" font-size="14" fill="#8a96a8" font-weight="600">[NITRO]</text><text x="1376.25" y="560.5" text-anchor="middle" font-size="21" font-weight="700" fill="#ffffff"><tspan x="1376.25" dy="0">Nitro Hypervisor</tspan></text><text x="1376.25" y="596.5" text-anchor="middle" font-size="15" font-weight="500" fill="#6b7280"><tspan x="1376.25" dy="0">隔离 vCPU/内存</tspan><tspan x="1376.25" dy="19">签署 attestation</tspan><tspan x="1376.25" dy="19">document</tspan></text>
<line x1="531.5" y1="264.5" x2="583.5" y2="332.0" stroke="#5f6673" stroke-width="3" stroke-dasharray="8 8" marker-end="url(#arrowGray)"/><rect x="512.5" y="280.25" width="90" height="28" rx="7" fill="white" stroke="#5f6673" stroke-width="1.5"/><text x="557.5" y="299.25" text-anchor="middle" font-size="14" fill="#5f6673" font-weight="700">vsock</text>
<line x1="859.0" y1="332.0" x2="1238.5" y2="574.5" stroke="#5b7fcb" stroke-width="3" marker-end="url(#arrowBlue)"/><rect x="1003.75" y="435.25" width="90" height="28" rx="7" fill="white" stroke="#5b7fcb" stroke-width="1.5"/><text x="1048.75" y="454.25" text-anchor="middle" font-size="14" fill="#5b7fcb" font-weight="700">attest</text>
<line x1="721.25" y1="446" x2="1048.75" y2="683" stroke="#5b7fcb" stroke-width="3" marker-end="url(#arrowBlue)"/><rect x="800.0" y="546.5" width="170" height="28" rx="7" fill="white" stroke="#5b7fcb" stroke-width="1.5"/><text x="885.0" y="565.5" text-anchor="middle" font-size="14" fill="#5b7fcb" font-weight="700">document + pubkey</text>
<line x1="911.0" y1="729.5" x2="721.25" y2="446" stroke="#5b7fcb" stroke-width="3" marker-end="url(#arrowBlue)"/><rect x="726.125" y="569.75" width="180" height="28" rx="7" fill="white" stroke="#5b7fcb" stroke-width="1.5"/><text x="816.125" y="588.75" text-anchor="middle" font-size="14" fill="#5b7fcb" font-weight="700">encrypted data key</text>
<rect x="70" y="815" width="1460" height="115" rx="9" fill="#f8fafc" stroke="#5f6673" stroke-width="2.5"/>
<text x="90" y="841" font-size="15" fill="#7c8798" font-weight="800">硬件强制层 · AWS Nitro System</text>
<rect x="90.0" y="858" width="460.0" height="58" rx="10" fill="#eee7ff" stroke="#a796d8" stroke-width="2"/><text x="104.0" y="882" font-size="14" fill="#8a96a8" font-weight="600">[HW]</text><text x="320.0" y="873.0" text-anchor="middle" font-size="21" font-weight="700" fill="#1f2933"><tspan x="320.0" dy="0">vCPU / memory partition</tspan></text><text x="320.0" y="909.0" text-anchor="middle" font-size="15" font-weight="500" fill="#6b7280"><tspan x="320.0" dy="0">父实例无法读 enclave内存</tspan></text>
<rect x="570.0" y="858" width="460.0" height="58" rx="10" fill="#eee7ff" stroke="#a796d8" stroke-width="2"/><text x="584.0" y="882" font-size="14" fill="#8a96a8" font-weight="600">[HW]</text><text x="800.0" y="873.0" text-anchor="middle" font-size="21" font-weight="700" fill="#1f2933"><tspan x="800.0" dy="0">EIF PCR</tspan></text><text x="800.0" y="909.0" text-anchor="middle" font-size="15" font-weight="500" fill="#6b7280"><tspan x="800.0" dy="0">镜像度量和签名属性</tspan></text>
<rect x="1050.0" y="858" width="460.0" height="58" rx="10" fill="#eee7ff" stroke="#a796d8" stroke-width="2"/><text x="1064.0" y="882" font-size="14" fill="#8a96a8" font-weight="600">[HW]</text><text x="1280.0" y="873.0" text-anchor="middle" font-size="21" font-weight="700" fill="#1f2933"><tspan x="1280.0" dy="0">Nitro Attestation</tspan></text><text x="1280.0" y="909.0" text-anchor="middle" font-size="15" font-weight="500" fill="#6b7280"><tspan x="1280.0" dy="0">AWS根签名 document</tspan></text>
<text x="70" y="956" font-size="14" fill="#5b7fcb" font-weight="800">TCB：</text>
<text x="115" y="956" font-size="14" fill="#7c8798">Nitro System + enclave image/service + KMS policy；Parent EC2 root 不可信</text>
</svg>